HIERARCHY
ROOT hip
{
	OFFSET 0.000000 0.000000 0.000000 
	CHANNELS 6 Xposition Yposition Zposition Zrotation Yrotation Xrotation
	JOINT abdomen
	{
		OFFSET 0.000000 20.688101 -0.731520 
		CHANNELS 3 Zrotation Xrotation Yrotation
		JOINT chest
		{
			OFFSET 0.000000 11.704300 -0.487680 
			CHANNELS 3 Zrotation Xrotation Yrotation
			JOINT neck
			{
				OFFSET 0.000000 22.189400 -2.194560 
				CHANNELS 3 Zrotation Xrotation Yrotation
				JOINT head
				{
					OFFSET -0.243840 7.071330 1.219200 
					CHANNELS 3 Zrotation Xrotation Yrotation
					End Site
					{
						OFFSET 1.000000 0.000000 0.000000 
					}
				}
			}
			JOINT rCollar
			{
				OFFSET -2.682240 19.263399 -4.876800 
				CHANNELS 3 Zrotation Xrotation Yrotation
				JOINT rShldr
				{
					OFFSET -8.778240 -1.950730 1.463040 
					CHANNELS 3 Zrotation Xrotation Yrotation
					JOINT rForeArm
					{
						OFFSET -28.174200 -1.711500 0.487680 
						CHANNELS 3 Zrotation Xrotation Yrotation
						JOINT rHand
						{
							OFFSET -22.587900 0.773209 7.071360 
							CHANNELS 3 Zrotation Xrotation Yrotation
							End Site
							{
								OFFSET -1.692250 -0.517670 -0.607171 
							}
						}
					}
				}
			}
			JOINT lCollar
			{
				OFFSET 2.682240 19.263399 -4.876800 
				CHANNELS 3 Zrotation Xrotation Yrotation
				JOINT lShldr
				{
					OFFSET 8.778240 -1.950730 1.463040 
					CHANNELS 3 Zrotation Xrotation Yrotation
					JOINT lForeArm
					{
						OFFSET 28.174200 -1.711500 0.487680 
						CHANNELS 3 Zrotation Xrotation Yrotation
						JOINT lHand
						{
							OFFSET 22.587900 0.773209 7.071360 
							CHANNELS 3 Zrotation Xrotation Yrotation
							End Site
							{
								OFFSET 1.692250 -0.517670 -0.607171 
							}
						}
					}
				}
			}
		}
	}
	JOINT rButtock
	{
		OFFSET -8.778240 4.350840 1.219200 
		CHANNELS 3 Zrotation Xrotation Yrotation
		JOINT rThigh
		{
			OFFSET 0.000000 -1.706870 -2.194560 
			CHANNELS 3 Zrotation Xrotation Yrotation
			JOINT rShin
			{
				OFFSET 0.000000 -36.819901 0.731520 
				CHANNELS 3 Zrotation Xrotation Yrotation
				JOINT rFoot
				{
					OFFSET 0.731520 -45.110401 -5.120640 
					CHANNELS 3 Zrotation Xrotation Yrotation
					End Site
					{
						OFFSET -1.122100 -3.699640 12.103000 
					}
				}
			}
		}
	}
	JOINT lButtock
	{
		OFFSET 8.778240 4.350840 1.219200 
		CHANNELS 3 Zrotation Xrotation Yrotation
		JOINT lThigh
		{
			OFFSET 0.000000 -1.706870 -2.194560 
			CHANNELS 3 Zrotation Xrotation Yrotation
			JOINT lShin
			{
				OFFSET 0.000000 -36.819901 0.731520 
				CHANNELS 3 Zrotation Xrotation Yrotation
				JOINT lFoot
				{
					OFFSET -0.731520 -45.110401 -5.120640 
					CHANNELS 3 Zrotation Xrotation Yrotation
					End Site
					{
						OFFSET 1.122100 -3.699640 12.103000 
					}
				}
			}
		}
	}
}
MOTION
Frames: 18
Frame Time: 0.008333
49.819500 83.829697 -77.016197 -4.000400 -41.514301 4.627800 2.946870 -0.754763 -2.258910 5.956800 -3.677000 -0.427699 -13.729000 3.738990 -5.124740 18.061899 -1.575950 -7.207570 -0.000000 -0.000000 -0.000000 73.165199 -1.493850 -5.059920 -15.483200 -8.215620 28.589399 -0.271613 -14.672800 -2.108920 -0.000000 -0.000000 -0.000000 -72.855698 12.410200 -5.412720 11.993200 -5.443730 -21.596901 0.127704 10.135000 -1.439590 -0.000000 0.000000 -0.000000 -3.378210 -22.823999 6.292270 -0.251451 36.297600 0.559931 -0.531324 -12.627000 -0.763679 0.000000 0.000000 0.000000 1.941770 -11.953700 0.273034 0.207457 33.707199 -0.723339 8.246110 -19.895901 18.660700 
49.837898 83.828003 -76.995201 -3.928600 -41.809502 4.592500 2.901510 -0.723647 -2.335140 5.814360 -3.486490 -0.462435 -13.679000 3.592330 -5.320780 18.054701 -1.603420 -7.567380 -0.000000 0.000000 -0.000000 73.282898 -1.989020 -4.942920 -15.409400 -8.149720 28.435600 -0.274659 -14.753200 -2.121000 -0.000000 0.000000 -0.000000 -72.632301 12.603400 -5.880340 12.079900 -5.504740 -21.764601 0.126369 10.082900 -1.432030 -0.000000 0.000000 -0.000000 -3.400230 -22.958599 6.331620 -0.251425 36.317402 0.558165 -0.484749 -12.558800 -0.612485 0.000000 0.000000 0.000000 1.849660 -11.913000 0.279619 0.206695 33.664700 -0.723751 8.331310 -19.974800 18.797600 
49.866100 83.821404 -76.991402 -3.791200 -42.139500 4.558100 2.868150 -0.701250 -2.494330 5.723640 -3.359660 -0.516520 -13.679700 3.520290 -5.460130 18.109800 -1.610460 -7.827050 0.000000 0.000000 -0.000000 73.356300 -2.435130 -4.889410 -15.330500 -8.079670 28.271400 -0.274950 -14.761900 -2.122290 0.000000 0.000000 -0.000000 -72.475700 12.849400 -6.219880 12.164700 -5.564750 -21.929100 0.124330 10.003600 -1.420520 -0.000000 0.000000 -0.000000 -3.372700 -23.062700 6.463210 -0.251575 36.332500 0.557170 -0.454962 -12.510200 -0.516946 0.000000 0.000000 0.000000 1.780070 -11.868200 0.287945 0.206071 33.631599 -0.724309 8.408810 -20.047001 18.921101 
49.882301 83.818703 -76.988701 -3.693900 -42.428101 4.506700 2.862320 -0.694608 -2.774720 5.697290 -3.322310 -0.599435 -13.775600 3.586150 -5.520830 18.295500 -1.624810 -7.943970 -0.000000 0.000000 -0.000000 73.370903 -2.824880 -4.917940 -15.240900 -8.000720 28.085400 -0.269831 -14.629300 -2.102340 -0.000000 0.000000 -0.000000 -72.412300 13.174800 -6.378250 12.244200 -5.621230 -22.083799 0.120543 9.854090 -1.398850 -0.000000 0.000000 -0.000000 -3.268420 -23.122900 6.732850 -0.251937 36.337399 0.557377 -0.448270 -12.492600 -0.499275 0.000000 0.000000 0.000000 1.740130 -11.816800 0.280393 0.205595 33.609501 -0.725120 8.479900 -20.110600 19.035299 
49.894798 83.821701 -76.972298 -3.517200 -42.735600 4.325200 2.876420 -0.695175 -3.127100 5.703710 -3.331540 -0.699952 -13.929700 3.736850 -5.536530 18.566000 -1.656390 -7.977430 -0.000000 -0.000000 -0.000000 73.352600 -3.188140 -4.995170 -15.144600 -7.916350 27.886000 -0.261757 -14.414600 -2.070130 -0.000000 -0.000000 -0.000000 -72.393204 13.557200 -6.443620 12.318500 -5.674260 -22.228399 0.115762 9.659540 -1.370690 -0.000000 0.000000 -0.000000 -3.107910 -23.148100 7.100570 -0.252383 36.333500 0.558429 -0.459660 -12.495100 -0.542635 0.000000 0.000000 0.000000 1.720800 -11.758100 0.258586 0.205218 33.595200 -0.726126 8.546950 -20.172100 19.141300 
49.883900 83.820801 -76.989899 -3.585500 -43.005100 4.352200 2.881200 -0.693488 -3.502360 5.737710 -3.361440 -0.805182 -14.068100 3.869730 -5.531510 18.802700 -1.635590 -7.978810 -0.000000 -0.000000 -0.000000 73.309700 -3.518460 -5.104230 -15.050600 -7.834410 27.692400 -0.254990 -14.229900 -2.042470 -0.000000 -0.000000 -0.000000 -72.399902 13.955600 -6.468810 12.395200 -5.729540 -22.377899 0.111916 9.497540 -1.347280 -0.000000 0.000000 -0.000000 -2.936510 -23.160200 7.493360 -0.252932 36.332500 0.559625 -0.478048 -12.500500 -0.609535 0.000000 0.000000 0.000000 1.712820 -11.698400 0.260944 0.204956 33.587101 -0.727131 8.604940 -20.230600 19.229200 
49.853802 83.817703 -77.027603 -3.883200 -43.072498 4.560200 2.847640 -0.680112 -3.851430 5.794290 -3.386120 -0.902223 -14.116400 3.882100 -5.530030 18.886999 -1.492750 -7.999560 -0.000000 -0.000000 -0.000000 73.250999 -3.809430 -5.228210 -14.968400 -7.762940 27.523600 -0.253393 -14.186900 -2.036040 -0.000000 -0.000000 -0.000000 -72.412498 14.328500 -6.506760 12.482200 -5.792670 -22.547300 0.110694 9.445710 -1.339790 -0.000000 0.000000 -0.000000 -2.799190 -23.181400 7.838390 -0.253607 36.346199 0.560265 -0.492307 -12.491700 -0.662472 0.000000 0.000000 0.000000 1.706760 -11.643500 0.325854 0.204828 33.583900 -0.727938 8.648780 -20.285801 19.288799 
49.843300 83.816803 -77.030701 -3.966100 -43.060299 4.565600 2.753250 -0.652114 -4.164630 5.888680 -3.402810 -0.987887 -14.042200 3.699590 -5.529940 18.782499 -1.142560 -8.040720 -0.000000 -0.000000 -0.000000 73.174103 -4.035330 -5.363660 -14.902500 -7.706060 27.388599 -0.259799 -14.366700 -2.062900 -0.000000 -0.000000 -0.000000 -72.435204 14.670600 -6.557290 12.581200 -5.864870 -22.740601 0.113815 9.581600 -1.359410 -0.000000 0.000000 -0.000000 -2.702880 -23.221500 8.127070 -0.254452 36.379700 0.559988 -0.500646 -12.459600 -0.696461 0.000000 0.000000 0.000000 1.712640 -11.602900 0.499713 0.204957 33.591000 -0.728459 8.667840 -20.337900 19.297199 
49.833000 83.810501 -77.038696 -3.919300 -43.333000 4.513800 2.618680 -0.614689 -4.467010 6.017980 -3.423930 -1.068970 -13.889200 3.392630 -5.521290 18.554701 -0.644474 -8.079540 -0.000000 -0.000000 -0.000000 73.076103 -4.207560 -5.519130 -14.847600 -7.659000 27.275999 -0.271904 -14.692500 -2.111750 -0.000000 -0.000000 -0.000000 -72.475700 15.002000 -6.596790 12.688100 -5.943120 -22.949900 0.120154 9.844870 -1.397490 -0.000000 0.000000 -0.000000 -2.625240 -23.267500 8.394660 -0.255442 36.426102 0.559225 -0.508571 -12.414800 -0.729822 0.000000 0.000000 0.000000 1.731110 -11.570500 0.749953 0.205295 33.607300 -0.728812 8.667690 -20.387400 19.266500 
49.819801 83.800003 -77.057404 -3.888900 -43.718102 4.506100 2.479720 -0.570613 -4.761500 6.150230 -3.446440 -1.147550 -13.697800 3.075730 -5.516500 18.237301 -0.146056 -8.131500 -0.000000 0.000000 -0.000000 72.964600 -4.375430 -5.695830 -14.797800 -7.616560 27.173700 -0.285448 -15.039700 -2.164060 -0.000000 0.000000 -0.000000 -72.518600 15.319800 -6.643350 12.801200 -6.026610 -23.171900 0.126809 10.106300 -1.435390 -0.000000 0.000000 -0.000000 -2.567220 -23.308300 8.634160 -0.256494 36.478901 0.558466 -0.515886 -12.369900 -0.760015 0.000000 0.000000 0.000000 1.738570 -11.529700 0.996494 0.205599 33.621101 -0.729105 8.667760 -20.432899 19.238899 
49.839600 83.782997 -77.045197 -3.722800 -43.895901 4.388900 2.372110 -0.522657 -5.051040 6.253470 -3.467260 -1.225690 -13.508900 2.863440 -5.527720 17.864500 0.205130 -8.211380 -0.000000 0.000000 -0.000000 72.846802 -4.588180 -5.895060 -14.747200 -7.573480 27.069901 -0.295354 -15.284000 -2.201010 -0.000000 0.000000 -0.000000 -72.547600 15.620600 -6.715170 12.919100 -6.114540 -23.403601 0.130270 10.236600 -1.454320 -0.000000 0.000000 -0.000000 -2.529960 -23.332800 8.838500 -0.257530 36.531700 0.558202 -0.522427 -12.337800 -0.784503 0.000000 0.000000 0.000000 1.711380 -11.464300 1.159250 0.205627 33.620602 -0.729448 8.687580 -20.473499 19.256599 
49.870499 83.770401 -77.018097 -3.567900 -43.965500 4.235600 2.303800 -0.472135 -5.331410 6.310780 -3.493060 -1.302270 -13.300700 2.810040 -5.565520 17.365101 0.338839 -8.344070 -0.000000 0.000000 -0.000000 72.722198 -4.901060 -6.132060 -14.689600 -7.524630 26.952000 -0.298628 -15.362300 -2.212890 -0.000000 0.000000 -0.000000 -72.544701 15.925100 -6.823200 13.042400 -6.207240 -23.646200 0.127798 10.141700 -1.440550 -0.000000 0.000000 -0.000000 -2.532390 -23.337999 8.991610 -0.258606 36.587502 0.558648 -0.526891 -12.324400 -0.796450 0.000000 0.000000 0.000000 1.621850 -11.358700 1.197400 0.205169 33.593201 -0.729773 8.740850 -20.501900 19.353001 
49.894901 83.760498 -76.994301 -3.557200 -44.014900 4.159600 2.256330 -0.417392 -5.602740 6.341980 -3.522990 -1.376760 -13.062300 2.846520 -5.620880 16.747000 0.344148 -8.514360 -0.000000 -0.000000 -0.000000 72.586098 -5.273520 -6.401470 -14.629700 -7.474050 26.829599 -0.298210 -15.351000 -2.211190 -0.000000 -0.000000 -0.000000 -72.522499 16.227699 -6.955880 13.171200 -6.304820 -23.900900 0.121927 9.910430 -1.407010 -0.000000 0.000000 -0.000000 -2.568010 -23.329901 9.101870 -0.259741 36.648102 0.559516 -0.529816 -12.322200 -0.799268 0.000000 0.000000 0.000000 1.490100 -11.225500 1.160220 0.204403 33.548401 -0.730055 8.814430 -20.521000 19.498301 
49.891899 83.749199 -76.935097 -3.541900 -44.194698 4.081500 2.225850 -0.356749 -5.874370 6.370300 -3.542680 -1.452060 -12.850700 2.902520 -5.676510 16.163099 0.312490 -8.676590 -0.000000 -0.000000 0.000000 72.439903 -5.611200 -6.673570 -14.577700 -7.430220 26.723499 -0.297492 -15.334500 -2.208670 -0.000000 -0.000000 0.000000 -72.511002 16.486099 -7.097450 13.303800 -6.406180 -24.163700 0.116515 9.687960 -1.374810 -0.000000 0.000000 -0.000000 -2.599930 -23.311800 9.198850 -0.260800 36.705299 0.560543 -0.533813 -12.323100 -0.805797 0.000000 0.000000 0.000000 1.364140 -11.090300 1.102770 0.203664 33.507401 -0.730462 8.887690 -20.544399 19.639500 
49.874298 83.733704 -76.850502 -3.524900 -44.468102 4.015600 2.208570 -0.288533 -6.155680 6.419020 -3.537790 -1.531090 -12.723200 2.907700 -5.715080 15.767200 0.335149 -8.785130 0.000000 -0.000000 0.000000 72.287903 -5.820060 -6.918130 -14.543900 -7.401690 26.654699 -0.299879 -15.397100 -2.218110 0.000000 -0.000000 0.000000 -72.541298 16.658199 -7.231860 13.438600 -6.510210 -24.431200 0.114855 9.619550 -1.364920 -0.000000 0.000000 -0.000000 -2.591200 -23.286699 9.312100 -0.261647 36.751099 0.561463 -0.541482 -12.319100 -0.828876 0.000000 0.000000 0.000000 1.291410 -10.979000 1.079990 0.203289 33.491699 -0.731162 8.939980 -20.585899 19.723801 
49.888100 83.721001 -76.793297 -3.325200 -44.638599 3.831300 2.176590 -0.214769 -6.461210 6.510220 -3.491970 -1.618250 -12.674800 2.802870 -5.722160 15.557600 0.478119 -8.809650 0.000000 -0.000000 0.000000 72.128403 -5.823940 -7.121930 -14.535500 -7.394590 26.637800 -0.307088 -15.578600 -2.245570 0.000000 -0.000000 0.000000 -72.643700 16.680700 -7.350410 13.579100 -6.620000 -24.710600 0.118879 9.793440 -1.390040 -0.000000 0.000000 -0.000000 -2.553040 -23.261600 9.443330 -0.262299 36.787498 0.562269 -0.552644 -12.310000 -0.870300 0.000000 0.000000 0.000000 1.268540 -10.901400 1.109430 0.203343 33.503601 -0.732113 8.959350 -20.663601 19.713900 
49.925201 83.709000 -76.740799 -2.997100 -44.711800 3.562700 2.141140 -0.135561 -6.781940 6.626430 -3.417040 -1.710780 -12.681600 2.639010 -5.710290 15.466300 0.678875 -8.780640 -0.000000 -0.000000 0.000000 71.962898 -5.690390 -7.302440 -14.545600 -7.403140 26.658501 -0.317292 -15.828300 -2.283440 -0.000000 -0.000000 0.000000 -72.795601 16.593700 -7.462700 13.724800 -6.734860 -25.001301 0.126792 10.115700 -1.436700 -0.000000 0.000000 -0.000000 -2.498180 -23.232700 9.578800 -0.262810 36.817501 0.563081 -0.566188 -12.299400 -0.923761 0.000000 0.000000 0.000000 1.275410 -10.842700 1.160790 0.203656 33.532902 -0.733254 8.958650 -20.765499 19.645700 
49.897099 83.700600 -76.730698 -3.239800 -44.766701 3.668500 2.157170 -0.046356 -7.091950 6.731470 -3.340940 -1.800810 -12.772900 2.511130 -5.702570 15.548200 0.835795 -8.743520 -0.000000 0.000000 -0.000000 71.800301 -5.540980 -7.475280 -14.563400 -7.418110 26.694700 -0.328511 -16.094700 -2.324000 -0.000000 0.000000 -0.000000 -72.948097 16.509701 -7.580140 13.867400 -6.848170 -25.287001 0.135799 10.458100 -1.486450 -0.000000 0.000000 -0.000000 -2.392140 -23.187401 9.724890 -0.263097 36.834099 0.563823 -0.583306 -12.285200 -0.989941 0.000000 0.000000 0.000000 1.334050 -10.791900 1.217150 0.204217 33.581799 -0.734730 8.954660 -20.860399 19.576000 
